# xmcd
#
# Track frame offsets:
#	183
#	13688
#	27215
#	42995
#	54388
#	68440
#	80893
#	92905
#	106818
#	117710
#	128355
#	140978
#	154095
#	166240
#	181550
#	203945
#	218298
#	231675
#	245668
#
# Disc length: 3442 seconds
#
# Revision: 0
# Processed by: cddbd v1.4PL0 Copyright (c) Steve Scherf et al.
# Submitted via: audiograbber 1.80.04
#
DISCID=050d7013
DTITLE=Howlin' Wolf - The Wolf Is At Your Door (Disk 2)
DYEAR=1900
DGENRE=Blues
TTITLE0=Tell Me
TTITLE1=My Baby Walked Off
TTITLE2=Killing Floor
TTITLE3=My Country Sugar Mama
TTITLE4=My Life
TTITLE5=Goin' Back Home
TTITLE6=Louise
TTITLE7=Highway 49
TTITLE8=Hold On To Your Money
TTITLE9=Built For Comfort
TTITLE10=Ain't Superstitious
TTITLE11=My Last Affair
TTITLE12=Dorothy Mae
TTITLE13=Commit A Crime
TTITLE14=Moanin' At Midnight
TTITLE15=Riding In The Moonlight
TTITLE16=Everybody's In The Mood
TTITLE17=The Wolf Is At Your Door
TTITLE18=I Better Go Now
EXTD=
EXTT0=
EXTT1=
EXTT2=
EXTT3=
EXTT4=
EXTT5=
EXTT6=
EXTT7=
EXTT8=
EXTT9=
EXTT10=
EXTT11=
EXTT12=
EXTT13=
EXTT14=
EXTT15=
EXTT16=
EXTT17=
EXTT18=
PLAYORDER=
